<?xml version="1.0" encoding="UTF-8" standalone="no"?>
<!DOCTYPE svg PUBLIC "-//W3C//DTD SVG 1.1//EN" "http://www.w3.org/Graphics/SVG/1.1/DTD/svg11.dtd">
<svg width="100%" height="100%" viewBox="0 0 1671 319" version="1.1" xmlns="http://www.w3.org/2000/svg" xmlns:xlink="http://www.w3.org/1999/xlink" xml:space="preserve" xmlns:serif="http://www.serif.com/" style="fill-rule:evenodd;clip-rule:evenodd;stroke-linejoin:round;stroke-miterlimit:2;">
    <g transform="matrix(1,0,0,1,-420.219384,-561.342429)">
        <path d="M486.323,759.654L486.323,875.012L420.219,875.012L420.219,665.035L486.323,665.035L486.323,681.021C499.285,667.483 517.287,660.714 540.33,660.714C550.411,660.714 559.268,662.227 566.901,665.251C574.534,668.275 581.231,672.956 586.992,679.293L547.675,728.979C544.794,725.81 541.194,723.362 536.873,721.634C532.553,719.906 527.656,719.042 522.184,719.042C511.238,719.042 502.525,722.426 496.045,729.195C489.564,735.964 486.323,746.117 486.323,759.654Z" style="fill:white;"/>
        <path d="M764.565,879.765C742.962,879.765 723.448,874.94 706.022,865.291C688.596,855.642 674.842,842.464 664.761,825.758C654.68,809.052 649.639,790.33 649.639,769.592C649.639,748.853 654.68,730.275 664.761,713.857C674.842,697.439 688.524,684.405 705.806,674.756C723.088,665.107 742.674,660.282 764.565,660.282C786.456,660.282 806.042,665.035 823.324,674.54C840.606,684.045 854.288,697.079 864.369,713.641C874.45,730.203 879.491,748.853 879.491,769.592C879.491,790.33 874.45,809.052 864.369,825.758C854.288,842.464 840.606,855.642 823.324,865.291C806.042,874.94 786.456,879.765 764.565,879.765ZM764.565,819.71C774.07,819.71 782.423,817.621 789.624,813.445C796.825,809.268 802.37,803.364 806.258,795.731C810.147,788.098 812.091,779.385 812.091,769.592C812.091,759.798 810.075,751.229 806.042,743.885C802.01,736.54 796.465,730.779 789.408,726.602C782.351,722.426 774.07,720.338 764.565,720.338C755.348,720.338 747.139,722.426 739.938,726.602C732.737,730.779 727.121,736.612 723.088,744.101C719.056,751.589 717.039,760.23 717.039,770.024C717.039,779.529 719.056,788.098 723.088,795.731C727.121,803.364 732.737,809.268 739.938,813.445C747.139,817.621 755.348,819.71 764.565,819.71Z" style="fill:white;fill-rule:nonzero;"/>
        <path d="M1043.239,755.334L1043.239,875.012L977.135,875.012L977.135,665.035L1043.239,665.035L1043.239,681.478C1047.804,677.394 1052.916,673.857 1058.577,670.868C1071.394,664.099 1085.868,660.714 1101.998,660.714C1117.552,660.714 1131.305,664.387 1143.259,671.732C1155.212,679.077 1164.645,688.798 1171.558,700.895C1178.471,712.993 1181.928,726.242 1181.928,740.644L1181.928,875.012L1115.824,875.012L1115.824,755.334C1115.824,744.389 1112.439,735.531 1105.67,728.763C1098.901,721.994 1090.332,718.609 1079.963,718.609C1072.762,718.609 1066.426,720.122 1060.953,723.146C1055.48,726.17 1051.16,730.491 1047.991,736.108C1044.823,741.724 1043.239,748.133 1043.239,755.334Z" style="fill:white;"/>
        <path d="M1434.678,859.478C1429.66,863.702 1424.043,867.368 1417.828,870.476C1406.019,876.381 1392.913,879.333 1378.511,879.333C1358.637,879.333 1340.995,874.58 1325.585,865.075C1310.175,855.57 1298.078,842.608 1289.293,826.19C1280.507,809.772 1276.115,791.05 1276.115,770.024C1276.115,748.997 1280.507,730.275 1289.293,713.857C1298.078,697.439 1310.175,684.477 1325.585,674.972C1340.995,665.467 1358.637,660.714 1378.511,660.714C1392.913,660.714 1405.947,663.451 1417.612,668.923C1423.358,671.619 1428.614,674.821 1433.382,678.53L1433.382,561.342L1499.486,561.342L1499.486,875.012L1434.678,875.012L1434.678,859.478ZM1390.177,819.71C1399.682,819.71 1407.891,817.621 1414.804,813.445C1421.717,809.268 1427.189,803.436 1431.222,795.947C1435.254,788.458 1437.27,779.817 1437.27,770.024C1437.27,760.23 1435.326,751.661 1431.438,744.317C1427.549,736.972 1422.077,731.139 1415.02,726.818C1407.963,722.498 1399.826,720.338 1390.609,720.338C1381.392,720.338 1373.255,722.498 1366.198,726.818C1359.141,731.139 1353.524,737.044 1349.348,744.533C1345.171,752.021 1343.083,760.519 1343.083,770.024C1343.083,779.529 1345.099,788.026 1349.132,795.515C1353.164,803.004 1358.781,808.908 1365.982,813.229C1373.183,817.549 1381.248,819.71 1390.177,819.71Z" style="fill:white;"/>
        <path d="M1712.056,879.765C1690.453,879.765 1670.939,874.94 1653.513,865.291C1636.086,855.642 1622.333,842.464 1612.252,825.758C1602.17,809.052 1597.13,790.33 1597.13,769.592C1597.13,748.853 1602.17,730.275 1612.252,713.857C1622.333,697.439 1636.014,684.405 1653.297,674.756C1670.579,665.107 1690.165,660.282 1712.056,660.282C1733.946,660.282 1753.533,665.035 1770.815,674.54C1788.097,684.045 1801.778,697.079 1811.86,713.641C1821.941,730.203 1826.982,748.853 1826.982,769.592C1826.982,790.33 1821.941,809.052 1811.86,825.758C1801.778,842.464 1788.097,855.642 1770.815,865.291C1753.533,874.94 1733.946,879.765 1712.056,879.765ZM1712.056,819.71C1721.561,819.71 1729.914,817.621 1737.115,813.445C1744.316,809.268 1749.86,803.364 1753.749,795.731C1757.637,788.098 1759.581,779.385 1759.581,769.592C1759.581,759.798 1757.565,751.229 1753.533,743.885C1749.5,736.54 1743.955,730.779 1736.899,726.602C1729.842,722.426 1721.561,720.338 1712.056,720.338C1702.839,720.338 1694.63,722.426 1687.429,726.602C1680.228,730.779 1674.611,736.612 1670.579,744.101C1666.546,751.589 1664.53,760.23 1664.53,770.024C1664.53,779.529 1666.546,788.098 1670.579,795.731C1674.611,803.364 1680.228,809.268 1687.429,813.445C1694.63,817.621 1702.839,819.71 1712.056,819.71Z" style="fill:white;fill-rule:nonzero;"/>
        <path d="M2001.099,880.197C1988.713,880.197 1976.544,878.613 1964.59,875.444C1952.637,872.276 1941.547,867.739 1931.322,861.835C1921.097,855.93 1912.384,849.089 1905.183,841.312L1942.772,803.292C1949.684,810.781 1957.893,816.613 1967.399,820.79C1976.904,824.966 1987.273,827.055 1998.506,827.055C2006.283,827.055 2012.26,825.902 2016.436,823.598C2020.613,821.294 2022.701,818.125 2022.701,814.093C2022.701,808.908 2020.181,804.948 2015.14,802.212C2010.1,799.475 2003.691,797.027 1995.914,794.867C1988.137,792.706 1979.928,790.33 1971.287,787.738C1962.646,785.145 1954.437,781.545 1946.66,776.937C1938.883,772.328 1932.546,765.919 1927.65,757.71C1922.753,749.501 1920.305,739.06 1920.305,726.386C1920.305,712.849 1923.761,701.111 1930.674,691.174C1937.587,681.237 1947.38,673.388 1960.054,667.627C1972.727,661.867 1987.561,658.986 2004.555,658.986C2022.413,658.986 2038.903,662.083 2054.025,668.275C2069.147,674.468 2081.46,683.613 2090.965,695.711L2053.377,733.731C2046.752,725.954 2039.335,720.482 2031.126,717.313C2022.917,714.145 2014.924,712.561 2007.147,712.561C1999.658,712.561 1994.042,713.641 1990.297,715.801C1986.553,717.961 1984.681,721.058 1984.681,725.09C1984.681,729.411 1987.129,732.867 1992.026,735.459C1996.922,738.052 2003.259,740.356 2011.036,742.372C2018.813,744.389 2027.022,746.837 2035.663,749.717C2044.304,752.598 2052.513,756.486 2060.29,761.383C2068.067,766.279 2074.403,772.832 2079.3,781.041C2084.197,789.25 2086.645,799.979 2086.645,813.229C2086.645,833.679 2078.94,849.953 2063.53,862.051C2048.12,874.148 2027.31,880.197 2001.099,880.197Z" style="fill:white;fill-rule:nonzero;"/>
    </g>
</svg>
